<svg xmlns="http://www.w3.org/2000/svg" width="40" height="40" viewBox="0 0 40 40"><g fill="none" fill-rule="evenodd"><path fill="#FFF" fill-rule="nonzero" d="M13.4887465 22.8642125C14.0411082 22.3730635 14.917033 22.6302195 15.1162321 23.3420134 15.6925579 25.4013869 18.3354897 27 21.5 27 25.0387886 27 27.8543639 25.0190527 27.9944256 22.6861347 28.032134 22.0580491 28.6336091 21.6204447 29.242815 21.7778663 29.8115702 21.9248353 30.4003866 22 31 22 34.8659932 22 38 18.8659932 38 15 38 11.6268761 35.5961379 8.75040025 32.3234081 8.12473748 31.9741759 8.05797317 31.6866588 7.81079312 31.5682568 7.47552972 30.4252724 4.23909039 27.1960097 2 23.5 2 21.1534776 2 18.9638993 2.89808497 17.3719085 4.45668162 16.9724262 4.84778434 16.3298947 4.83540944 15.9457679 4.42921474 15.0969416 3.53162364 13.8507113 3 12.5 3 10.3118392 3 8.47149375 4.39641117 8.07762166 6.25637584 7.98818976 6.67869609 7.63785039 6.99595582 7.20875781 7.04320005 4.21711151 7.3725883 2 9.51694239 2 12 2 14.0098729 3.45419056 15.8313999 5.6839356 16.6125381 6.21414194 16.7982833 6.48733523 17.3842283 6.28875922 17.9097639 6.0986396 18.4129194 6 18.9488972 6 19.5 6 21.9852814 8.01471863 24 10.5 24 11.618198 24 12.6703272 23.5919345 13.4887465 22.8642125zM10.5 26C6.91014913 26 4 23.0898509 4 19.5 4 19.0373772 4.0485015 18.5809149 4.14347344 18.1363742 1.63948923 16.9324167 0 14.6138357 0 12 0 8.63742706 2.69777624 5.83320217 6.31238287 5.15576982 7.16565404 2.7060451 9.65157607 1 12.5 1 14.0518682 1 15.5198332 1.50547151 16.6750455 2.39978368 18.555958.865732341 20.9576053 0 23.5 0 27.8370361 0 31.6744899 2.52862822 33.2511687 6.28396431 37.1775021 7.29381308 40 10.8546418 40 15 40 19.9705627 35.9705627 24 31 24 30.5960709 24 30.1954127 23.9733254 29.7999446 23.9205763 28.9510708 26.8834932 25.5087314 29 21.5 29 18.0950934 29 15.06461 27.4689016 13.7245315 25.1450733 12.7564937 25.6990718 11.6509589 26 10.5 26zM12 36C9.290861 36 7 34.2818542 7 32 7 29.7181458 9.290861 28 12 28 14.709139 28 17 29.7181458 17 32 17 34.2818542 14.709139 36 12 36zM12 34C13.709139 34 15 33.0318542 15 32 15 30.9681458 13.709139 30 12 30 10.290861 30 9 30.9681458 9 32 9 33.0318542 10.290861 34 12 34zM3.5 40C1.60991338 40 0 38.7120693 0 37 0 35.2879307 1.60991338 34 3.5 34 5.39008662 34 7 35.2879307 7 37 7 38.7120693 5.39008662 40 3.5 40zM3.5 38C4.37133713 38 5 37.4970697 5 37 5 36.5029303 4.37133713 36 3.5 36 2.62866287 36 2 36.5029303 2 37 2 37.4970697 2.62866287 38 3.5 38z"></path><path d="M0 0H40V40H0z"></path></g></svg>