<svg xmlns="http://www.w3.org/2000/svg" width="40" height="40" viewBox="0 0 40 40"><g fill="none" fill-rule="evenodd"><path fill="#FFF" fill-rule="nonzero" d="M25.6,19.8 C25.1581722,20.1313708 24.5313708,20.0418278 24.2,19.6 C23.8686292,19.1581722 23.9581722,18.5313708 24.4,18.2 C26.8002538,16.3998096 28,13.7003807 28,10 C28,5.581722 24.418278,2 20,2 C15.581722,2 12,5.581722 12,10 C12,13.7003807 13.1997462,16.3998096 15.6,18.2 C16.0418278,18.5313708 16.1313708,19.1581722 15.8,19.6 C15.4686292,20.0418278 14.8418278,20.1313708 14.4,19.8 C11.4669205,17.6001904 10,14.2996193 10,10 C10,4.4771525 14.4771525,0 20,0 C25.5228475,0 30,4.4771525 30,10 C30,14.2996193 28.5330795,17.6001904 25.6,19.8 Z"></path><path fill="#FFF" fill-rule="nonzero" d="M14.0077361,18.8758531 C14.0763006,18.3278409 14.5761347,17.9391717 15.1241469,18.0077361 C15.6721591,18.0763006 16.0608283,18.5761347 15.9922639,19.1241469 C15.5993516,22.2645608 13.8659919,23.9963304 11,23.9963304 C9.20903823,23.9963304 7.26016331,22.8862914 6.58952873,21.4099027 C6.29581884,20.7633062 6.12088021,20.0367999 6.03411872,19.2197876 C5.95747892,18.4980889 5.95228455,17.8795717 5.98350296,16.8161737 C5.99843076,16.3076859 6.00116429,16.1894115 6.00001953,16.0062499 C5.99216256,14.749134 5.14763105,14 3.990625,14 C2.83585516,14 2,14.7455712 2,16 L2,17.9981652 C2,18.5504499 1.55228475,18.9981652 1,18.9981652 C0.44771525,18.9981652 1.42108547e-14,18.5504499 1.42108547e-14,17.9981652 L1.42108547e-14,16 C1.42108547e-14,13.586833 1.77898859,12 3.990625,12 C6.2000252,12 7.98491497,13.5832702 7.99998047,15.9937501 C8.00134069,16.2113852 7.99845848,16.3360924 7.98264167,16.8748629 C7.95394416,17.8523908 7.95856323,18.4024037 8.02293612,19.0085879 C8.08872546,19.6281104 8.21495561,20.1523342 8.41047127,20.582758 C8.73762658,21.302984 9.95492207,21.9963304 11,21.9963304 C12.8006747,21.9963304 13.7339817,21.0638796 14.0077361,18.8758531 Z"></path><path fill="#FFF" fill-rule="nonzero" d="M38.0077221,18.8759653 C38.0762246,18.3279453 38.5760148,17.9392196 39.1240347,18.0077221 C39.6720547,18.0762246 40.0607804,18.5760148 39.9922779,19.1240347 C39.5994322,22.2668005 37.8662326,24 35,24 C33.2090382,24 31.2601633,22.8899611 30.5895287,21.4135723 C30.2947649,20.7646557 30.1196638,20.0346501 30.0332222,19.212833 C29.9574447,18.492402 29.9523962,17.8745555 29.9835016,16.8133509 C29.9984415,16.303656 30.0011642,16.1857327 30.0000195,16.0025802 C29.9921509,14.7436031 29.1450582,13.989258 27.9887796,13.9871242 C26.8347087,13.9849944 26,14.7321101 26,16 L26,18 C26,18.5522847 25.5522847,19 25,19 C24.4477153,19 24,18.5522847 24,18 L24,16 C24,13.5745325 25.7780804,11.9830411 27.9924704,11.9871276 C30.2005244,11.9912024 31.9849189,13.5802246 31.9999805,15.9900805 C32.0013405,16.2076785 31.9984712,16.3319478 31.982643,16.8719485 C31.9540347,17.8479617 31.9585275,18.3978021 32.0222496,19.00362 C32.0878615,19.6274055 32.2143135,20.1545902 32.4104713,20.5864277 C32.7376266,21.3066536 33.9549221,22 35,22 C36.800434,22 37.7339012,21.0665328 38.0077221,18.8759653 Z" transform="matrix(-1 0 0 1 64 0)"></path><path fill="#FFF" fill-rule="nonzero" d="M16 16C14.3431458 16 13 14.6568542 13 13 13 11.3431458 14.3431458 10 16 10 17.6568542 10 19 11.3431458 19 13 19 14.6568542 17.6568542 16 16 16zM16 14C16.5522847 14 17 13.5522847 17 13 17 12.4477153 16.5522847 12 16 12 15.4477153 12 15 12.4477153 15 13 15 13.5522847 15.4477153 14 16 14zM24 16C22.3431458 16 21 14.6568542 21 13 21 11.3431458 22.3431458 10 24 10 25.6568542 10 27 11.3431458 27 13 27 14.6568542 25.6568542 16 24 16zM24 14C24.5522847 14 25 13.5522847 25 13 25 12.4477153 24.5522847 12 24 12 23.4477153 12 23 12.4477153 23 13 23 13.5522847 23.4477153 14 24 14zM4 25C4.55228475 25 5 25.4477153 5 26 5 26.5522847 4.55228475 27 4 27 2.8954305 27 2 27.8954305 2 29 2 30.1045695 2.8954305 31 4 31 4.74854529 31 5.72416184 30.5818786 6.85405776 29.7366137L13.3540578 24.2366137C13.7756644 23.8798697 14.4066422 23.9324512 14.7633863 24.3540578 15.1201303 24.7756644 15.0675488 25.4066422 14.6459422 25.7633863L8.1 31.3C6.60917149 32.4181214 5.25145471 33 4 33 1.790861 33 0 31.209139 0 29 0 26.790861 1.790861 25 4 25z"></path><path fill="#FFF" fill-rule="nonzero" d="M12,32 C12.5522847,32 13,32.4477153 13,33 C13,33.5522847 12.5522847,34 12,34 C10.8954305,34 10,34.8954305 10,36 C10,37.1045695 10.8954305,38 12,38 C13.4831616,38 14.4645776,37.018584 15.0136061,34.835601 L17.0136061,22.835601 C17.1044011,22.2908307 17.6196287,21.922811 18.164399,22.0136061 C18.7091693,22.1044011 19.077189,22.6196287 18.9863939,23.164399 L16.9701425,35.2425356 C16.2020891,38.3147493 14.5168384,40 12,40 C9.790861,40 8,38.209139 8,36 C8,33.790861 9.790861,32 12,32 Z"></path><path fill="#FFF" fill-rule="nonzero" d="M29,25 C29.5522847,25 30,25.4477153 30,26 C30,26.5522847 29.5522847,27 29,27 C27.8954305,27 27,27.8954305 27,29 C27,30.1045695 27.8954305,31 29,31 C29.7485453,31 30.7241618,30.5818786 31.8540578,29.7366137 L38.3540578,24.2366137 C38.7756644,23.8798697 39.4066422,23.9324512 39.7633863,24.3540578 C40.1201303,24.7756644 40.0675488,25.4066422 39.6459422,25.7633863 L33.1,31.3 C31.6091715,32.4181214 30.2514547,33 29,33 C26.790861,33 25,31.209139 25,29 C25,26.790861 26.790861,25 29,25 Z" transform="matrix(-1 0 0 1 65 0)"></path><path fill="#FFF" fill-rule="nonzero" d="M25,32 C25.5522847,32 26,32.4477153 26,33 C26,33.5522847 25.5522847,34 25,34 C23.8954305,34 23,34.8954305 23,36 C23,37.1045695 23.8954305,38 25,38 C26.4831616,38 27.4645776,37.018584 28.0136061,34.835601 L30.0136061,22.835601 C30.1044011,22.2908307 30.6196287,21.922811 31.164399,22.0136061 C31.7091693,22.1044011 32.077189,22.6196287 31.9863939,23.164399 L29.9701425,35.2425356 C29.2020891,38.3147493 27.5168384,40 25,40 C22.790861,40 21,38.209139 21,36 C21,33.790861 22.790861,32 25,32 Z" transform="matrix(-1 0 0 1 53 0)"></path><path d="M0 0H40V40H0z"></path></g></svg>