<svg fill="#fff" version="1.1" id="Capa_1" xmlns="http://www.w3.org/2000/svg" xmlns:xlink="http://www.w3.org/1999/xlink" viewBox="0 0 511.00 511.00" xml:space="preserve" width="56px" height="56px" stroke="#fff" stroke-width="4"><title>Office</title><g id="SVGRepo_bgCarrier" stroke-width="12"></g><g id="SVGRepo_tracerCarrier" stroke-linecap="round" stroke-linejoin="round" stroke="#fff" stroke-width="12.264"></g><g id="SVGRepo_iconCarrier"> <g> <path d="M199,247.75v-17h88v-159H48v159h88v17H0v191.5h15v-176.5h481v176.5h15v-191.5H199z M100.394,86.75l21.796,21.796 l10.606-10.606L121.606,86.75H272v97h-53.394l-69.822-69.822l-10.606,10.606l59.216,59.216H63v-97H100.394z M63,198.75h209v17H63 V198.75z M151,230.75h33v17h-33V230.75z"></path> <path d="M288,439.25h15v-16.5h161v16.5h15v-159.5H288V439.25z M303,407.75v-49h161v49H303z M464,294.75v49H303v-49H464z"></path> <rect x="367.5" y="375.75" width="40" height="15"></rect> <rect x="367.5" y="311.75" width="40" height="15"></rect> <rect x="367.5" y="223.75" width="112" height="15"></rect> <rect x="367.5" y="199.75" width="112" height="15"></rect> <rect x="367.5" y="175.75" width="96" height="15"></rect> </g> </g></svg>