<svg fill="#000000" height="56px" width="56px" version="1.1" id="Layer_1" xmlns="http://www.w3.org/2000/svg" xmlns:xlink="http://www.w3.org/1999/xlink" viewBox="0 0 512 512" xml:space="preserve" stroke="#000000" stroke-width="0.00512"><title>Storm</title><g id="SVGRepo_bgCarrier" stroke-width="0"></g><g id="SVGRepo_tracerCarrier" stroke-linecap="round" stroke-linejoin="round"></g><g id="SVGRepo_iconCarrier"> <g> <g> <g> <path d="M292.418,228.418l64-64c8.331-8.331,8.331-21.839,0-30.17c-8.331-8.331-21.839-8.331-30.17,0l-64,64 c-8.331,8.331-8.331,21.839,0,30.17C270.58,236.749,284.087,236.749,292.418,228.418z"></path> <path d="M420.418,100.418l64-64c8.331-8.331,8.331-21.839,0-30.17c-8.331-8.331-21.839-8.331-30.17,0l-64,64 c-8.331,8.331-8.331,21.839,0,30.17S412.087,108.749,420.418,100.418z"></path> <path d="M198.248,432.915l-42.667,42.667c-8.331,8.331-8.331,21.839,0,30.17c8.331,8.331,21.839,8.331,30.17,0l42.667-42.667 c8.331-8.331,8.331-21.839,0-30.17C220.087,424.584,206.58,424.584,198.248,432.915z"></path> <path d="M356.418,304.915c-8.331-8.331-21.839-8.331-30.17,0l-64,64c-8.331,8.331-8.331,21.839,0,30.17 c8.331,8.331,21.839,8.331,30.17,0l64-64C364.75,326.754,364.75,313.246,356.418,304.915z"></path> <path d="M420.418,271.085l64-64c8.331-8.331,8.331-21.839,0-30.17c-8.331-8.331-21.839-8.331-30.17,0l-64,64 c-8.331,8.331-8.331,21.839,0,30.17S412.087,279.416,420.418,271.085z"></path> <path d="M198.248,91.582l-64,64c-8.331,8.331-8.331,21.839,0,30.17c8.331,8.331,21.839,8.331,30.17,0l64-64 c8.331-8.331,8.331-21.839,0-30.17S206.58,83.251,198.248,91.582z"></path> <path d="M70.248,219.582l-64,64c-8.331,8.331-8.331,21.839,0,30.17c8.331,8.331,21.839,8.331,30.17,0l64-64 c8.331-8.331,8.331-21.839,0-30.17S78.58,211.251,70.248,219.582z"></path> <path d="M198.248,262.248l-64,64c-8.331,8.331-8.331,21.839,0,30.17c8.331,8.331,21.839,8.331,30.17,0l64-64 c8.331-8.331,8.331-21.839,0-30.17C220.087,253.917,206.58,253.917,198.248,262.248z"></path> <path d="M70.248,390.248l-64,64c-8.331,8.331-8.331,21.839,0,30.17c8.331,8.331,21.839,8.331,30.17,0l64-64 c8.331-8.331,8.331-21.839,0-30.17S78.58,381.917,70.248,390.248z"></path> <path d="M292.418,57.752l21.333-21.333c8.331-8.331,8.331-21.839,0-30.17c-8.331-8.331-21.839-8.331-30.17,0l-21.333,21.333 c-8.331,8.331-8.331,21.839,0,30.17C270.58,66.083,284.087,66.083,292.418,57.752z"></path> <path d="M390.248,411.582l-64,64c-8.331,8.331-8.331,21.839,0,30.17c8.331,8.331,21.839,8.331,30.17,0l64-64 c8.331-8.331,8.331-21.839,0-30.17C412.087,403.251,398.58,403.251,390.248,411.582z"></path> <path d="M505.752,326.248c-8.331-8.331-21.839-8.331-30.17,0l-21.333,21.333c-8.331,8.331-8.331,21.839,0,30.17 c8.331,8.331,21.839,8.331,30.17,0l21.333-21.333C514.083,348.087,514.083,334.58,505.752,326.248z"></path> </g> </g> </g> </g></svg>