<svg fill="#fff" width="56px" height="56px" viewBox="0 0 50 50" version="1.2" baseProfile="tiny" id="StaticRainOnRoofIcon" xmlns="http://www.w3.org/2000/svg" overflow="visible">
    <title>Rain on Roof</title>
    <g id="SVGRepo_bgCarrier" stroke-width="0"></g>
    <g id="SVGRepo_tracerCarrier" stroke-linecap="round" stroke-linejoin="round"></g>
    <g id="SVGRepo_iconCarrier">
        <g id="roof" fill="#fff">
            <path d="M8.149 16.062h6.06l-.053 3.575-6.007 5.406v-8.981z"></path>
            <path d="M24.907 14.083l-23.907 21.086 2.52 2.831 21.485-18.954 21.481 18.954 2.514-2.831-23.903-21.086-.097-.083-.093.083z"></path>
        </g>
        <g id="static-rain-streaks" 
           transform="translate(-2 -40) scale(0.125)" 
           fill="#fff"> 
            <g transform="translate(0 -540.36)"> <g> <path d="M180.1,910.96c-3.9-3.9-10.2-3.9-14.1,0l-20.6,20.6c-3.9,3.9-3.9,10.2,0,14.1c2,1.9,4.5,2.9,7.1,2.9c2.5,0,5.1-1,7-3 l20.6-20.5C184,921.16,184,914.86,180.1,910.96z"></path>
                    <path d="M246.6,911.06l-19.8,20.6c-3.8,3.9-3.7,10.3,0.3,14.1c1.9,1.9,4.4,2.8,6.9,2.8c2.7,0,5.3-1.1,7.2-3.1l19.8-20.6 c3.8-3.9,3.7-10.3-0.3-14.1C256.8,906.96,250.4,907.06,246.6,911.06z"></path>
                    <path d="M328.3,910.96l-20.6,20.6c-3.9,3.9-3.9,10.2,0,14.1c2,1.9,4.5,2.9,7.1,2.9c2.6,0,5.1-1,7-2.9l20.6-20.6 c3.9-3.9,3.9-10.2,0-14.1C338.5,907.06,332.2,907.06,328.3,910.96z"></path>
                    <path d="M409.9,910.96l-20.6,20.6c-3.9,3.9-3.9,10.2,0,14.1c2,1.9,4.5,2.9,7.1,2.9c2.5,0,5.1-1,7.1-3l20.5-20.5 c3.9-3.9,3.9-10.2,0-14.1C420.1,907.06,413.8,907.06,409.9,910.96z"></path>
                    <path d="M84.4,910.96l-20.6,20.6c-3.9,3.9-3.9,10.2,0,14.1c2,1.9,4.5,2.9,7.1,2.9c2.6,0,5.1-1,7-2.9l20.6-20.6 c3.9-3.9,3.9-10.2,0-14.1C94.6,907.06,88.3,907.06,84.4,910.96z"></path>
                    <path d="M287.9,981.96l-20.6,20.6c-3.9,3.9-3.9,10.2,0,14.1c2,1.9,4.5,2.9,7.1,2.9c2.6,0,5.1-1,7.1-2.9l20.5-20.6 c3.9-3.9,3.9-10.2,0-14.1C298.1,978.06,291.8,978.06,287.9,981.96z"></path>
                    <path d="M368.6,982.06l-19.8,20.6c-3.8,3.9-3.7,10.3,0.3,14.1c1.9,1.9,4.4,2.8,6.9,2.8c2.6,0,5.2-1,7.2-3.1l19.8-20.6 c3.8-3.9,3.7-10.3-0.3-14.1C378.8,977.96,372.4,978.06,368.6,982.06z"></path>
                </g>
            </g>
        </g>
    </g>
</svg>