<svg xmlns="http://www.w3.org/2000/svg" width="40" height="40" viewBox="0 0 40 40"><g fill="none" fill-rule="evenodd"><path fill="#FFF" fill-rule="nonzero" d="M4,20 C4,28.8360267 11.1809094,36 20.0401891,36 C23.7399719,36 27.2963267,34.6276879 30.1525082,32.2575951 C29.5759692,32.3183605 28.9936513,32.3490467 28.4073099,32.3490467 C19.2963898,32.3490467 11.9669031,25.1718385 11.9669031,16.1509434 C11.9669031,11.5699087 13.8656508,7.3150867 17.0686014,4.27402402 C9.62926426,5.66404468 4,12.1766436 4,20 Z M20.885752,3.85693094 C16.6215168,6.45592459 13.9669031,11.0745746 13.9669031,16.1509434 C13.9669031,24.0577616 20.3916701,30.3490467 28.4073099,30.3490467 C29.9561337,30.3490467 31.4706926,30.1060055 32.9111452,29.634521 C33.8624821,29.3231322 34.6304803,30.4477413 33.9942283,31.2205208 C30.5253333,35.4337744 25.4320543,38 20.0401891,38 C10.0773957,38 2,29.9416548 2,20 C2,10.0583452 10.0773957,2 20.0401891,2 C20.1549072,2 20.2695066,2.00106966 20.3839776,2.00320665 C21.384614,2.02188697 21.7403428,3.33606938 20.885752,3.85693094 Z"></path><path fill="#FFF" fill-rule="nonzero" d="M24 14C23.4477153 14 23 13.5522847 23 13 23 12.4477153 23.4477153 12 24 12L28 12C28.8385062 12 29.3046795 12.9699317 28.7808688 13.624695L26.0806248 17 28 17C28.5522847 17 29 17.4477153 29 18 29 18.5522847 28.5522847 19 28 19L24 19C23.1614938 19 22.6953205 18.0300683 23.2191312 17.375305L25.9193752 14 24 14zM32 3C31.4477153 3 31 2.55228475 31 2 31 1.44771525 31.4477153 1 32 1L38 1C38.8240453 1 39.2944272 1.94076375 38.8 2.6L34 9 38 9C38.5522847 9 39 9.44771525 39 10 39 10.5522847 38.5522847 11 38 11L32 11C31.1759547 11 30.7055728 10.0592363 31.2 9.4L36 3 32 3z"></path><path d="M0 0H40V40H0z"></path></g></svg>