<svg xmlns="http://www.w3.org/2000/svg" width="40" height="40" viewBox="0 0 40 40"><g fill="none" fill-rule="evenodd"><path fill="#FFF" fill-rule="nonzero" d="M35.1679497,21.4452998 L36.8320503,22.5547002 C35.6034129,24.3976562 35,26.207895 35,28 C35,29.792105 35.6034129,31.6023438 36.8320503,33.4452998 L35.1679497,34.5547002 C33.7299204,32.3976562 33,30.207895 33,28 C33,25.792105 33.7299204,23.6023438 35.1679497,21.4452998 Z"></path><path fill="#FFF" fill-rule="nonzero" d="M6,3 C5.44771525,3 5,2.55228475 5,2 C5,1.44771525 5.44771525,1 6,1 L25,1 C27.209139,1 29,2.790861 29,5 C29,7.209139 27.209139,9 25,9 L6,9 C5.44771525,9 5,8.55228475 5,8 C5,7.44771525 5.44771525,7 6,7 L25,7 C26.1045695,7 27,6.1045695 27,5 C27,3.8954305 26.1045695,3 25,3 L6,3 Z" transform="matrix(-1 0 0 1 34 0)"></path><path fill="#FFF" fill-rule="nonzero" d="M26.1679497 1.4452998L27.8320503 2.5547002C27.2700796 3.39765624 27 4.20789503 27 5 27 5.79210497 27.2700796 6.60234376 27.8320503 7.4452998L26.1679497 8.5547002C25.3965871 7.39765624 25 6.20789503 25 5 25 3.79210497 25.3965871 2.60234376 26.1679497 1.4452998zM38 21C38.5522847 21 39 21.4477153 39 22 39 22.5522847 38.5522847 23 38 23L8 23C5.23857625 23 3 25.2385763 3 28 3 30.7614237 5.23857625 33 8 33L38 33C38.5522847 33 39 33.4477153 39 34 39 34.5522847 38.5522847 35 38 35L8 35C4.13400675 35 1 31.8659932 1 28 1 24.1340068 4.13400675 21 8 21L38 21z"></path><path fill="#FFF" fill-rule="nonzero" d="M10.1055728,10.5527864 L11.8944272,11.4472136 C11.2952929,12.6454822 11,13.8266538 11,15 C11,16.1733462 11.2952929,17.3545178 11.8944272,18.5527864 L10.1055728,19.4472136 C9.37137377,17.9788155 9,16.4933204 9,15 C9,13.5066796 9.37137377,12.0211845 10.1055728,10.5527864 Z" transform="matrix(-1 0 0 1 20.894 0)"></path><path fill="#FFF" fill-rule="nonzero" d="M33,18 C33.5522847,18 34,18.4477153 34,19 C34,19.5522847 33.5522847,20 33,20 L12,20 C9.23857625,20 7,17.7614237 7,15 C7,12.2385763 9.23857625,10 12,10 L33,10 C33.5522847,10 34,10.4477153 34,11 C34,11.5522847 33.5522847,12 33,12 L12,12 C10.3431458,12 9,13.3431458 9,15 C9,16.6568542 10.3431458,18 12,18 L33,18 Z" transform="matrix(-1 0 0 1 41 0)"></path><path fill="#FFF" d="M8 28L14 28 14 40 11 37.5 8 40z"></path><path d="M0 0H40V40H0z"></path></g></svg>