<svg xmlns="http://www.w3.org/2000/svg" width="40" height="40" viewBox="0 0 40 40"><g fill="none" fill-rule="evenodd"><path fill="#FFF" fill-rule="nonzero" d="M20 28C24.418278 28 28 24.418278 28 20 28 15.581722 24.418278 12 20 12 15.581722 12 12 15.581722 12 20 12 24.418278 15.581722 28 20 28zM20 30C14.4771525 30 10 25.5228475 10 20 10 14.4771525 14.4771525 10 20 10 25.5228475 10 30 14.4771525 30 20 30 25.5228475 25.5228475 30 20 30zM19 1C19 .44771525 19.4477153 0 20 0 20.5522847 0 21 .44771525 21 1L21 6C21 6.55228475 20.5522847 7 20 7 19.4477153 7 19 6.55228475 19 6L19 1zM32.7279221 5.85786438C33.1184464 5.46734008 33.7516113 5.46734008 34.1421356 5.85786438 34.5326599 6.24838867 34.5326599 6.88155365 34.1421356 7.27207794L30.6066017 10.8076118C30.2160774 11.1981361 29.5829124 11.1981361 29.1923882 10.8076118 28.8018639 10.4170876 28.8018639 9.78392257 29.1923882 9.39339828L32.7279221 5.85786438zM39 19C39.5522847 19 40 19.4477153 40 20 40 20.5522847 39.5522847 21 39 21L34 21C33.4477153 21 33 20.5522847 33 20 33 19.4477153 33.4477153 19 34 19L39 19zM34.1421356 32.7279221C34.5326599 33.1184464 34.5326599 33.7516113 34.1421356 34.1421356 33.7516113 34.5326599 33.1184464 34.5326599 32.7279221 34.1421356L29.1923882 30.6066017C28.8018639 30.2160774 28.8018639 29.5829124 29.1923882 29.1923882 29.5829124 28.8018639 30.2160774 28.8018639 30.6066017 29.1923882L34.1421356 32.7279221zM21 39C21 39.5522847 20.5522847 40 20 40 19.4477153 40 19 39.5522847 19 39L19 34C19 33.4477153 19.4477153 33 20 33 20.5522847 33 21 33.4477153 21 34L21 39zM7.27207794 34.1421356C6.88155365 34.5326599 6.24838867 34.5326599 5.85786438 34.1421356 5.46734008 33.7516113 5.46734008 33.1184464 5.85786438 32.7279221L9.39339828 29.1923882C9.78392257 28.8018639 10.4170876 28.8018639 10.8076118 29.1923882 11.1981361 29.5829124 11.1981361 30.2160774 10.8076118 30.6066017L7.27207794 34.1421356zM1 21C.44771525 21-2.22044605e-16 20.5522847-2.22044605e-16 20-2.22044605e-16 19.4477153.44771525 19 1 19L6 19C6.55228475 19 7 19.4477153 7 20 7 20.5522847 6.55228475 21 6 21L1 21zM5.85786438 7.27207794C5.46734008 6.88155365 5.46734008 6.24838867 5.85786438 5.85786438 6.24838867 5.46734008 6.88155365 5.46734008 7.27207794 5.85786438L10.8076118 9.39339828C11.1981361 9.78392257 11.1981361 10.4170876 10.8076118 10.8076118 10.4170876 11.1981361 9.78392257 11.1981361 9.39339828 10.8076118L5.85786438 7.27207794z"></path><path d="M0 0H40V40H0z"></path></g></svg>