<svg xmlns="http://www.w3.org/2000/svg" width="40" height="40" viewBox="0 0 40 40"><g fill="none" fill-rule="evenodd"><path fill="#FFF" fill-rule="nonzero" d="M25.4784295 25.0439357C25.1904406 25.5151902 24.5749522 25.6637564 24.1036976 25.3757675 23.6324431 25.0877786 23.4838769 24.4722902 23.7718658 24.0010357L27.1467182 18.47855C27.5366478 17.8404833 28.4633522 17.8404833 28.8532818 18.47855L39.8532818 36.47855C40.2604977 37.1449032 39.7809298 38 39 38L17 38C16.4477153 38 16 37.5522847 16 37 16 36.4477153 16.4477153 36 17 36L37.2169432 36 28 20.9177294 25.4784295 25.0439357zM34 12C30.6862915 12 28 9.3137085 28 6 28 2.6862915 30.6862915 0 34 0 37.3137085 0 40 2.6862915 40 6 40 9.3137085 37.3137085 12 34 12zM34 10C36.209139 10 38 8.209139 38 6 38 3.790861 36.209139 2 34 2 31.790861 2 30 3.790861 30 6 30 8.209139 31.790861 10 34 10z"></path><path fill="#FFF" fill-rule="nonzero" d="M2.67017001,36 L29.32983,36 L16,11.1176507 L2.67017001,36 Z M0.11852003,36.5277786 L15.11852,8.52777859 C15.4955047,7.8240738 16.5044953,7.8240738 16.88148,8.52777859 L31.88148,36.5277786 C32.2383546,37.1939446 31.7557359,38 31,38 L1,38 C0.244264114,38 -0.238354637,37.1939446 0.11852003,36.5277786 Z"></path><path fill="#FFF" fill-rule="nonzero" d="M16.1159808 20.7012269L14.3479983 23.5299989C13.9563308 24.156667 13.0436692 24.156667 12.6520017 23.5299989L10.1520017 19.5299989C9.85929136 19.0616624 10.0016645 18.444712 10.4700011 18.1520017 10.9383376 17.8592914 11.555288 18.0016645 11.8479983 18.4700011L13.5 21.1132038 15.1520017 18.4700011C15.5128002 17.8927235 16.3324137 17.8368465 16.7682213 18.3598156L18.5 20.4379501 20.2317787 18.3598156C20.5853428 17.9355387 21.2159075 17.8782146 21.6401844 18.2317787 22.0644613 18.5853428 22.1217854 19.2159075 21.7682213 19.6401844L19.2682213 22.6401844C18.8684262 23.1199385 18.1315738 23.1199385 17.7317787 22.6401844L16.1159808 20.7012269zM26.6 28.3C26.1581722 28.6313708 25.5313708 28.5418278 25.2 28.1 24.8686292 27.6581722 24.9581722 27.0313708 25.4 26.7L27.4 25.2C27.7648362 24.9263729 28.2685836 24.934242 28.624695 25.2191312L30.3190429 26.5746095 31.2 25.4C31.5313708 24.9581722 32.1581722 24.8686292 32.6 25.2 33.0418278 25.5313708 33.1313708 26.1581722 32.8 26.6L31.3 28.6C30.9612853 29.0516196 30.3161245 29.1335245 29.875305 28.7808688L27.980242 27.2648185 26.6 28.3z"></path><path d="M0 0H40V40H0z"></path></g></svg>