<svg xmlns="http://www.w3.org/2000/svg" width="40" height="40" viewBox="0 0 40 40"><g fill="none" fill-rule="evenodd"><path fill="#FFF" fill-rule="nonzero" d="M13.6396078,29 C13.1629268,29 12.752512,29.3364597 12.6590271,29.8038839 L11.2198039,37 L28.7801961,37 L27.3409729,29.8038839 C27.247488,29.3364597 26.8370732,29 26.3603922,29 L13.6396078,29 Z M13.6396078,27 L26.3603922,27 C27.7904353,27 29.0216797,28.009379 29.3021342,29.4116516 L30.7413574,36.6077677 C30.9579813,37.6908872 30.2555479,38.7445375 29.1724284,38.9611614 C29.043282,38.9869906 28.9119001,39 28.7801961,39 L11.2198039,39 C10.1152344,39 9.2198039,38.1045695 9.2198039,37 C9.2198039,36.868296 9.23281328,36.7369141 9.25864255,36.6077677 L10.6978658,29.4116516 C10.9783203,28.009379 12.2095647,27 13.6396078,27 Z"></path><path fill="#FFF" fill-rule="nonzero" d="M20 36C18.3431458 36 17 34.6568542 17 33 17 31.3431458 18.3431458 30 20 30 21.6568542 30 23 31.3431458 23 33 23 34.6568542 21.6568542 36 20 36zM20 34C20.5522847 34 21 33.5522847 21 33 21 32.4477153 20.5522847 32 20 32 19.4477153 32 19 32.4477153 19 33 19 33.5522847 19.4477153 34 20 34zM14 34C13.4477153 34 13 33.5522847 13 33 13 32.4477153 13.4477153 32 14 32L15 32C15.5522847 32 16 32.4477153 16 33 16 33.5522847 15.5522847 34 15 34L14 34zM25 34C24.4477153 34 24 33.5522847 24 33 24 32.4477153 24.4477153 32 25 32L26 32C26.5522847 32 27 32.4477153 27 33 27 33.5522847 26.5522847 34 26 34L25 34zM22 22C21.4477153 22 21 21.5522847 21 21 21 20.4477153 21.4477153 20 22 20L24 20C24.5522847 20 25 20.4477153 25 21 25 21.5522847 24.5522847 22 24 22L22 22zM22 18C21.4477153 18 21 17.5522847 21 17 21 16.4477153 21.4477153 16 22 16L24 16C24.5522847 16 25 16.4477153 25 17 25 17.5522847 24.5522847 18 24 18L22 18zM22 14C21.4477153 14 21 13.5522847 21 13 21 12.4477153 21.4477153 12 22 12L24 12C24.5522847 12 25 12.4477153 25 13 25 13.5522847 24.5522847 14 24 14L22 14zM22 10C21.4477153 10 21 9.55228475 21 9 21 8.44771525 21.4477153 8 22 8L24 8C24.5522847 8 25 8.44771525 25 9 25 9.55228475 24.5522847 10 24 10L22 10zM22 6C21.4477153 6 21 5.55228475 21 5 21 4.44771525 21.4477153 4 22 4L24 4C24.5522847 4 25 4.44771525 25 5 25 5.55228475 24.5522847 6 24 6L22 6z"></path><path fill="#FFF" fill-rule="nonzero" d="M11.0215974,6.31297966 L8.14250707,1.51449576 C7.74259237,0.847971242 8.22270552,0 9,0 L26.9355488,1.55431223e-15 C26.9979676,0.000649456697 26.9979676,0.000649456697 27.0603054,0.00389484303 C28.1627238,0.0727959954 29.0005551,1.02233814 28.9316539,2.12475657 L27.6152553,23.1871349 C27.5164362,24.7682396 26.2052874,26 24.6210976,26 L15.3483283,26 C13.78304,26 12.4808259,24.7965404 12.3576338,23.2361075 L11.0215974,6.31297966 Z M10.7661904,2 L12.8574929,5.48550424 C12.9370161,5.61804294 12.9847335,5.7672116 12.9968981,5.92129751 L14.3514301,23.0787025 C14.3924941,23.5988468 14.8265655,24 15.3483283,24 L24.6210976,24 C25.1491608,24 25.5862105,23.5894132 25.6191501,23.0623783 L26.9355488,2 L10.7661904,2 Z"></path><path fill="#FFF" fill-rule="nonzero" d="M28,6 L28,4 L30.5,4 C32.4329966,4 34,5.56700338 34,7.5 L34,13.5 C34,15.4329966 32.4329966,17 30.5,17 L28,17 L28,15 L30.5,15 C31.3284271,15 32,14.3284271 32,13.5 L32,7.5 C32,6.67157288 31.3284271,6 30.5,6 L28,6 Z"></path><path d="M0 0H40V40H0z"></path></g></svg>